/* XPM */
static char *ear[]={
"32 32 8 1",
"b c #000000",
"a c #2f4f4f",
"# c #708090",
"c c #bebebe",
"f c #dcdcdc",
"d c #e6e6fa",
". c None",
"e c #ffffff",
"................#aabaaa#........",
"..............aba#cdef#ab#......",
".............bafeeeeeeeecbb.....",
"............b#eeeeeeeeeeedaa....",
"...........aadeeecabbbaceecb....",
"...........bfeedabbbb#bbceea#...",
"..........a#eefabbbbaecbaeeca...",
"........ab#eefaabbbbbeeabceca...",
"........#ceecafedabbbcecb#eda...",
"........deedb#eeeeabb#edb#efb...",
".......eeeeabaeeeecbbaeeb#eca...",
".......eeefbbbadeeeabaeeb#e##...",
".......eeedbbbbbfee#baeebcea#...",
"........eeeabbbbaeecb#efbdeb....",
"........eee#bbbbbdecbfe##efb....",
"........eeedbbbbbfe##eeade##....",
"........eeeeabbbbee#ee#fefa.....",
"........eee#bbbbcefdeeceda......",
".........e#ba#ceeeeefeeca.......",
".........##deeeeeeec#e#a........",
".........#eeeeeeefaae#a.........",
".........feeeeee#b#e#a..........",
".........eeeeefa#fe#a...........",
".........eeeeeceeecb............",
".........eeeeeeeefb.............",
"........feeeeeeedb..............",
"........ceeeeeee##..............",
"........#eeeeeefb...............",
"........adeeeeea#...............",
"........##eeed#a................",
".........aa#abb.................",
"..........#aa#.................."};
